<svg width="18" height="18" viewBox="0 0 18 18" fill="none" xmlns="http://www.w3.org/2000/svg">
<path d="M8.11111 1.88889H5.26667C3.77319 1.88889 3.02646 1.88889 2.45603 2.17954C1.95426 2.4352 1.54631 2.84315 1.29065 3.34491C1 3.91535 1 4.66208 1 6.15556V12.7333C1 14.2268 1 14.9735 1.29065 15.544C1.54631 16.0457 1.95426 16.4537 2.45603 16.7094C3.02646 17 3.77319 17 5.26667 17H11.8444C13.3379 17 14.0847 17 14.6551 16.7094C15.1569 16.4537 15.5648 16.0457 15.8205 15.544C16.1111 14.9735 16.1111 14.2268 16.1111 12.7333V9.88889M9.88889 13.4444H4.55556M11.6667 9.88889H4.55556M16.219 1.78105C17.2603 2.82245 17.2603 4.51089 16.219 5.55228C15.1776 6.59368 13.4891 6.59368 12.4477 5.55228C11.4063 4.51089 11.4063 2.82245 12.4477 1.78105C13.4891 0.73965 15.1776 0.73965 16.219 1.78105Z" stroke="#306BFF" stroke-width="1.5" stroke-linecap="round" stroke-linejoin="round"/>
</svg>
