<svg width="134" height="37" viewBox="0 0 134 37" fill="none" xmlns="http://www.w3.org/2000/svg">
<path d="M123.586 12.0851C121.653 12.0851 119.52 11.6417 116.842 5.68004C115.504 5.68004 114.71 5.68003 113.173 5.68004C116.198 12.6271 118.776 15.3862 123.586 15.3862C123.586 14.4501 123.586 13.4154 123.586 12.0851Z" fill="#2564FF"/>
<path d="M123.586 12.0851C125.52 12.0851 127.653 11.6417 130.33 5.68004C131.669 5.68004 132.463 5.68003 134 5.68004C130.975 12.6271 128.397 15.3862 123.586 15.3862C123.586 14.4501 123.586 13.4154 123.586 12.0851Z" fill="#2564FF"/>
<path d="M123.586 20.5596C121.653 20.5596 119.52 21.0031 116.842 26.9647C115.504 26.9647 114.71 26.9647 113.173 26.9647C116.198 20.0177 118.776 17.2585 123.586 17.2585C123.586 18.1947 123.586 19.2293 123.586 20.5596Z" fill="#2564FF"/>
<path d="M123.586 20.5596C125.52 20.5596 127.653 21.0031 130.33 26.9647C131.669 26.9647 132.463 26.9647 134 26.9647C130.975 20.0177 128.397 17.2585 123.586 17.2585C123.586 18.1947 123.586 19.2293 123.586 20.5596Z" fill="#2564FF"/>
<path d="M59.9812 20.8877H48.1023L45.9141 26.9056H42.1628L52.0098 0H56.1128L65.9207 26.9056H62.1695L59.9812 20.8877ZM58.9653 18.0147L54.0418 4.34837L49.1182 18.0147H58.9653Z" fill="#2564FF"/>
<path d="M73.7682 5.62959V26.9056H70.2123V5.62959H73.7682Z" fill="#2564FF"/>
<path d="M83.3844 9.55089C84.0877 8.33438 85.1298 7.32494 86.5104 6.52256C87.9171 5.6943 89.5453 5.28017 91.3949 5.28017C93.2965 5.28017 95.0159 5.73312 96.5528 6.63903C98.1158 7.54494 99.3402 8.82616 100.226 10.4827C101.112 12.1133 101.554 14.0157 101.554 16.1899C101.554 18.3382 101.112 20.2536 100.226 21.936C99.3402 23.6184 98.1158 24.9255 96.5528 25.8573C95.0159 26.7891 93.2965 27.255 91.3949 27.255C89.5713 27.255 87.9562 26.8538 86.5495 26.0514C85.1688 25.2232 84.1138 24.2008 83.3844 22.9843V37H79.8285V5.62959H83.3844V9.55089ZM97.9205 16.1899C97.9205 14.5852 97.5948 13.1875 96.9436 11.9969C96.2923 10.8062 95.4066 9.90031 94.2865 9.27912C93.1923 8.65792 91.981 8.34732 90.6524 8.34732C89.3499 8.34732 88.1386 8.67086 87.0184 9.31794C85.9243 9.93914 85.0386 10.858 84.3613 12.0745C83.71 13.2651 83.3844 14.6499 83.3844 16.2287C83.3844 17.8335 83.71 19.2441 84.3613 20.4606C85.0386 21.6513 85.9243 22.5701 87.0184 23.2172C88.1386 23.8384 89.3499 24.149 90.6524 24.149C91.981 24.149 93.1923 23.8384 94.2865 23.2172C95.4066 22.5701 96.2923 21.6513 96.9436 20.4606C97.5948 19.2441 97.9205 17.8206 97.9205 16.1899Z" fill="#2564FF"/>
<path d="M109.791 5.62959V26.9056H106.235V5.62959H109.791Z" fill="#2564FF"/>
<path d="M16.8287 17.4114C22.0962 17.5922 24.6958 18.4758 28.9587 26.9722C31.1224 26.9722 31.1732 26.9722 33.6574 26.9722C28.9587 16.3688 24.602 13.514 16.8287 13.514C16.8287 14.812 16.8287 15.5669 16.8287 17.4114Z" fill="#2564FF"/>
<path d="M7.16229e-08 17.4114C5.26753 17.5922 7.86709 18.4758 12.13 26.9722C14.2937 26.9722 14.3445 26.9722 16.8287 26.9722C12.13 16.3688 7.77327 13.514 7.16229e-08 13.514C2.84454e-05 14.812 -1.64819e-06 15.5669 7.16229e-08 17.4114Z" fill="#2564FF"/>
<path d="M33.6575 9.61657C28.3899 9.43577 25.7904 8.55215 21.5275 0.0558503C19.3638 0.0558431 19.313 0.0558267 16.8287 0.0558503C21.5275 10.6592 25.8842 13.514 33.6575 13.514C33.6574 12.216 33.6575 11.4611 33.6575 9.61657Z" fill="#2564FF"/>
<path d="M16.8287 9.61657C11.5612 9.43577 8.96164 8.55215 4.69876 0.0558503C2.53507 0.0558431 2.48425 0.0558267 5.95522e-06 0.0558503C4.69876 10.6592 9.05545 13.514 16.8287 13.514C16.8287 12.216 16.8287 11.4611 16.8287 9.61657Z" fill="#2564FF"/>
</svg>
