<svg width="18" height="16" viewBox="0 0 18 16" fill="none" xmlns="http://www.w3.org/2000/svg">
<path d="M2.6 4.88624C2.46879 4.88295 2.37352 4.87557 2.28786 4.859C1.65315 4.73626 1.15699 4.25388 1.03074 3.63681C1 3.48654 1 3.30584 1 2.94444C1 2.58305 1 2.40235 1.03074 2.25208C1.15699 1.63501 1.65315 1.15263 2.28786 1.02989C2.44241 1 2.62828 1 3 1H15C15.3717 1 15.5576 1 15.7121 1.02989C16.3468 1.15263 16.843 1.63501 16.9693 2.25208C17 2.40235 17 2.58305 17 2.94444C17 3.30584 17 3.48654 16.9693 3.63681C16.843 4.25388 16.3468 4.73626 15.7121 4.859C15.6265 4.87557 15.5312 4.88295 15.4 4.88624M7.4 8.77778H10.6M2.6 4.88889H15.4V11.2667C15.4 12.5735 15.4 13.2269 15.1384 13.726C14.9083 14.165 14.5412 14.522 14.0896 14.7457C13.5762 15 12.9041 15 11.56 15H6.44C5.09587 15 4.42381 15 3.91042 14.7457C3.45883 14.522 3.09168 14.165 2.86158 13.726C2.6 13.2269 2.6 12.5735 2.6 11.2667V4.88889Z" stroke="#7E8892" stroke-width="1.5" stroke-linecap="round" stroke-linejoin="round"/>
</svg>
