<svg width="19" height="18" viewBox="0 0 19 18" fill="none" xmlns="http://www.w3.org/2000/svg">
<path d="M14.2 7.52941V4M12.4 5.76471H16M12.4 14V13.2941C12.4 12.3058 12.4 11.8116 12.2038 11.4341C12.0312 11.1021 11.7559 10.8321 11.4172 10.6629C11.0321 10.4706 10.5281 10.4706 9.52 10.4706H6.88C5.87191 10.4706 5.36786 10.4706 4.98282 10.6629C4.64413 10.8321 4.36876 11.1021 4.19619 11.4341C4 11.8116 4 12.3058 4 13.2941V14M10.3 6.05882C10.3 7.19588 9.3598 8.11765 8.2 8.11765C7.0402 8.11765 6.1 7.19588 6.1 6.05882C6.1 4.92177 7.0402 4 8.2 4C9.3598 4 10.3 4.92177 10.3 6.05882Z" stroke="#306BFF" stroke-width="1.5" stroke-linecap="round" stroke-linejoin="round"/>
</svg>
